<svg id="Layer_1" data-name="Layer 1" xmlns="http://www.w3.org/2000/svg" viewBox="0 0 560.94 300"><defs><style>.cls-1,.cls-3{fill:#b01d17;}.cls-1,.cls-2{fill-rule:evenodd;}.cls-2{fill:#feeb17;}</style></defs><title>India Post</title><polygon class="cls-1" points="83.36 67.89 426.25 67.89 426.25 261.56 83.36 261.56 83.36 67.89 83.36 67.89"/><path class="cls-2" d="M424.52,90.87c-1,1.29-8,5.9-10,7.21-14.28,9.23-35.21,25.49-49.62,35.84-13.53,9.68-25.91,19.15-39.61,28.5-32.1,22.09-77.06,54.38-118.52,51.91a60,60,0,0,1-26-8C164.13,197,160,184.09,147.05,171.8c-13.86-13.18-23.49-18.89-40.6-27.58-4.91-2.49-23.37-9.22-24.07-10-9-2-33.5-10.81-41.73-9.35A293,293,0,0,0,9.91,132.7L0,136c.86,1.17-.5.95,4.86.91,10.91-.11,16.8,1,27.64,2.46,2.17.29,3.55.33,5.52.67,12.74,2.3,17.14,3.21,29.91,6.4,3.38.84,12.47,2.95,14.42,4.12,10.9,1.37,36.27,15.47,45.6,22.17a162.45,162.45,0,0,1,13.71,11.54c1.56,1.8,2.89,2.71,4.38,4.48,4,4.76,11.77,14.67,15.75,18.33,29.27,26.8,64.93,23.63,102.42,5.41,26.56-12.92,58.68-36.19,82-53.88,18.84-14.27,39.29-30.07,58.32-43.94,3.11-2.24,18.06-13.37,20-14.18l39.2-26.64c3.12-2.35,8.7-5.28,12.47-7.48l17-9.52c1.64-.89,2.87-1.4,4.36-2.27l13.23-6.7c.94-.49.78-.47,2.06-1l39-17.64c1.76-.7,2.91-1.21,4.67-2,2.25-1,3.54-1.29,4.31-2.34-2.78,0-10.91,3-14.51,4.09-10.08,3.11-30.48,11.4-41,16.15l-37.66,19Z"/><path class="cls-2" d="M417.48,75.38,378.23,103c-24.69,18.15-52.44,38.2-77.9,55.34-24.17,16.28-65.07,41.57-96.33,34.45-20.92-4.77-26.72-20.57-36.22-30.18-20.16-20.4-31.94-28.51-58.51-41.1-13.65-6.47-12.65-5.1-26.94-3.77l-21.25,2.82c1.06,1.44.18.63,5.12,1.55,2,.36,3.76.75,5.54,1.11,2,.41,3.8.87,5.39,1.25a34.49,34.49,0,0,1,5.2,1.43c12,2,37.21,14,47.9,20.26,43.62,25.41,39.57,53.58,79.37,57.85,31.7,3.39,72.67-23.05,96.27-40.08,13.37-9.63,26.88-19.22,39.67-28.95,13.09-10,26-19.75,39.16-29.46,3.83-2.85,36.33-27.22,39.87-28.78l41-26.75,54.18-28.61c1.32-.64,2.34-.7,3.11-1.76-3.22.27-26,10.11-28.76,11.52-12.67,6.4-19.63,9.16-32.95,17.14-2.31,1.37-4.4,2.35-6.45,3.73-1,.67-1.9,1.17-3,1.86l-3.39,1.84c-1.06.62-1.93,1.23-3,1.9l-15.44,9.78c-4.17,2.5-8.94,6.24-12.37,8Z"/><path class="cls-2" d="M386.41,75.38,307.88,131.8C285,147.16,244,176.27,215.64,174.42c-20.49-1.34-51.21-50.22-75.5-59.43-3.52-1.33-21.82,0-26.8.34,1.65,1,7.91,2.78,10.25,3.82a145.63,145.63,0,0,1,27,15.92c11.24,8.31,21.64,17.14,29.71,27.41,7.8,10,17.14,21,36.18,21,16,0,32.86-7.38,44.11-13.55a344.91,344.91,0,0,0,35.25-21.81C307.17,140,318,132.56,329,124.21s21.54-16.33,32.53-24.62c3.52-2.61,29.53-22.7,32.91-24.43l8.27-6.09c.84-.62,1.2-.84,2.09-1.46l55.42-38.43c.95-.68,1.56-.95,1.95-2-3.48,1.84-6.53,3.46-10,5.5L433,44.41c-1.55,1-3,1.68-4.67,2.82l-18.7,12.32c-1.68,1.14-3.11,2-4.77,3.12-5.09,3.72-13.8,9.11-18.41,12.65Z"/><path class="cls-3" d="M92.75,34.43V30.51l-1.43.34H89.17a6.55,6.55,0,0,1-2.93-.56A9,9,0,0,1,82,26.11,8.26,8.26,0,0,1,81.44,23a7.13,7.13,0,0,1,1.23-3.87,6.49,6.49,0,0,1,3.12-2.64A10,10,0,0,1,89.17,16a13.53,13.53,0,0,1,1.56,0,4.57,4.57,0,0,1,1.34.48,7.77,7.77,0,0,1,4.19,3.94,8.35,8.35,0,0,1,.59,2.91V34.45h4.26v2.07H96.88v4.1a8.17,8.17,0,0,1-2.15,5.24,7.09,7.09,0,0,1-5,2.19A6.93,6.93,0,0,1,83,44.14a7.53,7.53,0,0,1-.42-2.49,7.17,7.17,0,0,1,2-5,6.7,6.7,0,0,1,5.14-2.2Zm-1.85,12,1-1.09.59-1.56.23-1.93V36.51h-.53a5.92,5.92,0,0,0-3.83,1.63,5.62,5.62,0,0,0-1.56,3.74l.17,2a4.54,4.54,0,0,0,1.56,2.59l1.14.34A5.49,5.49,0,0,0,90.9,46.45Zm.72-18.84a7.83,7.83,0,0,0,1.13-4.35,5.41,5.41,0,0,0-.29-2.07,4.59,4.59,0,0,0-1.86-3.12,3.49,3.49,0,0,0-1.43-.56,2.49,2.49,0,0,0-1.39.49l-1.13,1.24-.83,1.87-.25,2.22a7.28,7.28,0,0,0,1,4.2,3.09,3.09,0,0,0,2.57,1.79,3.75,3.75,0,0,0,2.45-1.65Zm19.46-11.33V18.5h-4.8l.19,29.6a1.82,1.82,0,0,0,.65,1l1,.77,1.18.2v1.37H99.1V50c1.24.28,2.18-.36,2.82-1.93l.23-1.31V18.5H97.66V16.28Zm11.06,0V18.5h-4.78l.18,29.6a1.69,1.69,0,0,0,.66,1l1,.77,1.2.2v1.37H110.17V50c1.23.28,2.19-.36,2.82-1.93l.24-1.31V18.5h-4.49V16.28Zm21.32,2.22H131.3a12.77,12.77,0,0,1,6.23,4.33l1.08,1.66.72,1.56.42,1.67.17,1.85a10,10,0,0,1-3.4,7.36l-1.81,1.32-1.91.89a7.29,7.29,0,0,1-2.09.62l-2.4.14q6.72,9.24,9.35,9.23h1a2.33,2.33,0,0,0,.95-.35l1-.6,1.14-1,.59,1.48A7.33,7.33,0,0,1,141.24,50l-1.56,1-.77.36-.91.22-.95.12H136a8.89,8.89,0,0,1-2.76-.43,10.93,10.93,0,0,1-2.76-1.42,18,18,0,0,1-4.55-5.8,5.88,5.88,0,0,0-1-1.56l-1.2-1.58a5,5,0,0,0-1.25-1l-1.38-.69V37.61l2.27.69,3.12.22A8.26,8.26,0,0,0,131.18,37a10,10,0,0,0,3.24-4.41,10.48,10.48,0,0,0,.65-3.8,9.55,9.55,0,0,0-5.5-8.9,20.3,20.3,0,0,0-4-1.45h-4.84V16.28h22.75Zm30.88,0h-4.68l.17,29.86a1.88,1.88,0,0,0,.66,1l1,.76h1.25v1.37H162.48V50.23h1.12l1-.63a3.91,3.91,0,0,0,.72-1.19l.23-1.32V29.29a8.41,8.41,0,0,0-4.48-1.9h-2.09a8.73,8.73,0,0,0-4.88,1.48,9.45,9.45,0,0,0-4,7.65v1.56a17.71,17.71,0,0,0,1,5.59,23,23,0,0,0,3.11,6l-3.6,1.93a22.24,22.24,0,0,1-4.67-13.76,12.11,12.11,0,0,1,2.15-7,12.63,12.63,0,0,1,5.53-4.54,14.32,14.32,0,0,1,4.85-.9h1.91l.72.22,1,.31,1.67.65,1.85,1v-9H143.92V16.28l29.87-.2.59,2.42ZM175.13,1a11.84,11.84,0,0,1,5.61,7.38,20.55,20.55,0,0,1,.78,5.4v2.47h4.67V18.5h-4.67l.19,29.6a2.33,2.33,0,0,0,.65,1.11l1,.7,1.2.2v1.37h-10.3V50c1.33.28,2.28-.36,2.89-1.93l.23-1.31V18.5H173V16.28h4.49V13.73a20.52,20.52,0,0,0-1.44-8c-.95-2.25-2.12-3.46-3.5-3.65a4.23,4.23,0,0,0-2.2.55A6,6,0,0,0,167,6.39a9.37,9.37,0,0,0-.42,2.68v1.45l.11.76a2.3,2.3,0,0,0,.25,1l.56,1.37.81,1.71h-4.1a4.48,4.48,0,0,1-.73-1.18l-.8-1.56-.12-.34v-.83l-.3-.46V9.07a9.72,9.72,0,0,1,.56-3.34,10.22,10.22,0,0,1,2-3A8.74,8.74,0,0,1,171.24,0a7.67,7.67,0,0,1,3.88,1ZM216.66,18.5H212V46.92a4,4,0,0,0,.9,2.43l1,.74H215v1.45H204.84V50.09a2.94,2.94,0,0,0,2.82-1.93l.24-1.31v-4a9.89,9.89,0,0,1-9,4.67,11.31,11.31,0,0,1-8.77-4.41,15.94,15.94,0,0,1-3.8-10.75V30.15l2.46.76H193a5.21,5.21,0,0,0,3.29-1.46l1-1.67a5.61,5.61,0,0,0,.36-2.07,8.33,8.33,0,0,0-1.37-4.24,8.6,8.6,0,0,0-3.65-3H185.1V16.14h31.54V18.5ZM197.51,32.78a10.8,10.8,0,0,1-2.7.49h-3.16l-.53-.27-.55-.44a14.8,14.8,0,0,0,.67,4.77,11.14,11.14,0,0,0,5,6.56,7.91,7.91,0,0,0,3.66.89h1.25a3.08,3.08,0,0,0,1.13-.14l1.08-.26,1.14-.49,1.85-1.24a6,6,0,0,0,1.56-1.73V18.5H196.62a4.59,4.59,0,0,1,2.15.95A7.68,7.68,0,0,1,202,24.71v1.37a7.17,7.17,0,0,1-4.49,6.7Zm62.9-14.28h-5.14v8.27h-9.52a6.19,6.19,0,0,0-2.34.34,2.81,2.81,0,0,0-1.86.75,2.64,2.64,0,0,0-1.73,2.43c0,.78.58,1.56,1.73,2.31l1.92.73,2.28.2h5.74a6.5,6.5,0,0,1,3.95,1.39,7.87,7.87,0,0,1,2.82,3.38,8.61,8.61,0,0,1,.53,3,9.17,9.17,0,0,1-3.62,7.2,13.17,13.17,0,0,1-8.88,3.12,14.57,14.57,0,0,1-10.78-4.77,19.63,19.63,0,0,1-3.9-5.47,31.94,31.94,0,0,1-2-6.92h1.79a19.33,19.33,0,0,0,1.67,5.82A15.56,15.56,0,0,0,240.84,48a12.29,12.29,0,0,0,5,1,11.47,11.47,0,0,0,3.89-.69,8.35,8.35,0,0,0,3.38-2.82,6.79,6.79,0,0,0,1.56-4.33,5.81,5.81,0,0,0-1.56-3.85,4.77,4.77,0,0,0-3.78-1.78h-4.85a17.14,17.14,0,0,1-3.71-.34,9.55,9.55,0,0,1-3-1.23,4.3,4.3,0,0,1-2.53-5.53,4.26,4.26,0,0,1,1.94-2.26,8.76,8.76,0,0,1,5.31-1.56h8.09V18.45H228.87V16.28h31.54V18.5Zm11.92-2.22V18.5h-4.8l.18,29.6a1.69,1.69,0,0,0,.66,1l.95.77,1.2.2v1.37H260.34V50c1.25.28,2.19-.36,2.82-1.93l.24-1.31V18.5h-4.49V16.28Zm40.85,2.22H293.44v8.27a11.77,11.77,0,0,1,7.79-3.38,8.64,8.64,0,0,1,5.5,2,10.71,10.71,0,0,1,3.72,5.28,15,15,0,0,1,.78,4.46,12.46,12.46,0,0,1-2.88,8.1A11.57,11.57,0,0,1,305.06,46a8.08,8.08,0,0,1-3.83.83h-.78l-1.29-.14-.72-.26-.84-.29L296,45.31l-.72-.55V43.33l1.8.36,2.33.12a10.15,10.15,0,0,0,1.56,0,5.07,5.07,0,0,0,1.37-.48,7.79,7.79,0,0,0,3.45-3.27,9.7,9.7,0,0,0,1.27-4.91,9.17,9.17,0,0,0-2.38-6,7.76,7.76,0,0,0-4-2.4l-1.56-.22h-1.07a1.4,1.4,0,0,0-.78.14l-.67.14-.83.2-1,.48a4.13,4.13,0,0,0-1.2.78V46.76l.19,1.39a2.61,2.61,0,0,0,.55,1l1,.76,1.14.21v1.38H286.4V50.09c1.15.28,2-.35,2.63-1.93l.23-1.31V43.33a11.86,11.86,0,0,1-7.79,3.46,9.14,9.14,0,0,1-7.24-3.43,12.24,12.24,0,0,1-2.93-8.24,11.92,11.92,0,0,1,2.93-8.26,11.24,11.24,0,0,1,3.3-2.6,7,7,0,0,1,1.89-.69,9.47,9.47,0,0,1,2-.21h2.17a1.91,1.91,0,0,1,1.13.35l1.08.49a5.93,5.93,0,0,1,1.79,1.14l1.56,1.55V18.5H269.63V16.28h43.55Zm-32.91,8.36a7.89,7.89,0,0,0-4.11,4.68,13.83,13.83,0,0,0-.44,1.68,11.34,11.34,0,0,0-.17,1.84,9.37,9.37,0,0,0,2.18,6.23,7,7,0,0,0,5.49,2.56H284a9.32,9.32,0,0,0,3.71-1.06,11.82,11.82,0,0,0,1.43-1V28.23l-1.39-.82-1.56-.69-1.55-.34-1.39-.27a9.12,9.12,0,0,0-1.56.13,4.5,4.5,0,0,0-1.45.56Z"/><path class="cls-3" d="M288.33,296V277.81a2.09,2.09,0,0,0-.36-1.39,1.73,1.73,0,0,0-1.29-.4H285v-1.56h10V276h-1.7a1.69,1.69,0,0,0-1.28.4,2.09,2.09,0,0,0-.36,1.39V296a2.1,2.1,0,0,0,.36,1.4,1.62,1.62,0,0,0,1.28.39H295v1.56H285v-1.56h1.7a1.67,1.67,0,0,0,1.3-.4,2.08,2.08,0,0,0,.35-1.39Zm10.91.36V286.05a.91.91,0,0,0-.27-.73,1.42,1.42,0,0,0-.92-.22h-1.21v-1.38l2.57-.17,2.58-.18h0v3h0a8.41,8.41,0,0,1,.92-1.56,4.69,4.69,0,0,1,3.87-1.87,3.94,3.94,0,0,1,3.33,1.56,7.17,7.17,0,0,1,1.23,4.38v7.56a1.32,1.32,0,0,0,1.59,1.6h.87v1.39h-7.69V298H307a1.29,1.29,0,0,0,1.56-1.55v-7.8a4.44,4.44,0,0,0-.72-2.71,2.45,2.45,0,0,0-2-.93,3.31,3.31,0,0,0-2.74,1.35,5.4,5.4,0,0,0-1.08,3.51h0v6.58a1.71,1.71,0,0,0,.36,1.23,1.74,1.74,0,0,0,1.25.35h.85v1.39h-7.68V298h.89a1.34,1.34,0,0,0,1.56-1.08,1.24,1.24,0,0,0,0-.47Zm22.45,3.51a5.38,5.38,0,0,1-4.51-2.34,10.29,10.29,0,0,1-1.71-6.23,10.53,10.53,0,0,1,1.7-6,4.89,4.89,0,0,1,4.11-2.49,4.83,4.83,0,0,1,4.3,2.23l.25.35h0v-8.83a.79.79,0,0,0-.33-.75,2.17,2.17,0,0,0-1.18-.22h-1.56V274.2l2.9-.14,2.93-.18h0v22.33a1.65,1.65,0,0,0,.48,1.37,2.74,2.74,0,0,0,1.72.39h.26v1.39l-2.62.17-2.61.17h0v-2.82h0l-.38.73a4.16,4.16,0,0,1-3.77,2.23Zm.53-15.32a2.91,2.91,0,0,0-2.71,1.71,15.32,15.32,0,0,0-.1,10.12,2.92,2.92,0,0,0,2.7,1.71,3,3,0,0,0,2.76-1.71,14.09,14.09,0,0,0,0-10.07,2.93,2.93,0,0,0-2.68-1.76ZM335,296.42V286.07a.82.82,0,0,0-.31-.73,1.87,1.87,0,0,0-1.09-.22h-1.43v-1.39l2.8-.17,2.79-.17h0v13a1.31,1.31,0,0,0,1.59,1.58h.87v1.39h-7.69V298h.92a1.34,1.34,0,0,0,1.6-1.6Zm1.27-21.93a1.57,1.57,0,0,1,1.29.59,2.35,2.35,0,0,1,0,3,1.56,1.56,0,0,1-1.29.61,1.68,1.68,0,0,1-1.3-.61,2.43,2.43,0,0,1,0-3A1.69,1.69,0,0,1,336.26,274.49Zm10.36,25.43a4.29,4.29,0,0,1-3.12-1.07,4,4,0,0,1-1.11-3,4.58,4.58,0,0,1,1.89-3.58,12.26,12.26,0,0,1,5.25-2.26l2.35-.51h0v-1.7a3.71,3.71,0,0,0-.76-2.59,3.22,3.22,0,0,0-2.45-.82,4,4,0,0,0-2.49.59l-.2.22c-.13.11-.16.29-.1.59a2.27,2.27,0,0,0,.38.89,1.79,1.79,0,0,1,.22,1,1.58,1.58,0,0,1-.47,1.17,1.54,1.54,0,0,1-1.2.45,1.35,1.35,0,0,1-1.15-.6,2.78,2.78,0,0,1-.42-1.56,3.54,3.54,0,0,1,1.65-3,7,7,0,0,1,4.17-1.18,6,6,0,0,1,4.23,1.24,5.84,5.84,0,0,1,1.26,4.2v7.79a2,2,0,0,0,.31,1.15.89.89,0,0,0,.76.47,2,2,0,0,0,.64-.1,2,2,0,0,0,.53-.26.33.33,0,0,1,.46,0h0a.62.62,0,0,1,.12.26.51.51,0,0,1,0,.3,2.77,2.77,0,0,1-2.6,1.81,2.37,2.37,0,0,1-2.1-1.09,5,5,0,0,1-.61-1.38h0l-.65.75a6.61,6.61,0,0,1-4.77,1.92Zm5.28-6.37v-2.67h0l-1.4.3a9.46,9.46,0,0,0-4,1.56,3.23,3.23,0,0,0-1.15,2.68,2.83,2.83,0,0,0,.67,2,2.11,2.11,0,0,0,1.69.76,3.73,3.73,0,0,0,3-1.32,5.11,5.11,0,0,0,1.2-3.32Zm18.43,2.51V277.83a2,2,0,0,0-.36-1.39,1.64,1.64,0,0,0-1.27-.4H367v-1.56h10.11a10.26,10.26,0,0,1,6.4,1.65,5.88,5.88,0,0,1,2.14,5,6.64,6.64,0,0,1-2.14,5.4,9.86,9.86,0,0,1-6.4,1.79c-1.23,0-2.38,0-3.48-.1h0V296a2.19,2.19,0,0,0,.36,1.41,1.74,1.74,0,0,0,1.3.39h1.77v1.55h-10v-1.55h1.7a1.68,1.68,0,0,0,1.29-.41,2.08,2.08,0,0,0,.35-1.39Zm3.3-9.35h0c1.13,0,2.33.09,3.57.09a4.54,4.54,0,0,0,3.65-1.37,6.42,6.42,0,0,0,1.17-4.22,5.87,5.87,0,0,0-1.11-4,4.88,4.88,0,0,0-3.71-1.2h-1.93a1.72,1.72,0,0,0-1.29.38,2.43,2.43,0,0,0-.35,1.56v8.77Zm20,13.21a5.61,5.61,0,0,1-4.67-2.34,10,10,0,0,1-1.78-6.23,9.63,9.63,0,0,1,1.89-6,5.67,5.67,0,0,1,7.86-1.59,5.87,5.87,0,0,1,1.49,1.45,9.94,9.94,0,0,1,1.77,6.23,9.61,9.61,0,0,1-1.88,6,5.66,5.66,0,0,1-4.6,2.48Zm0-1.39a2.71,2.71,0,0,0,2.53-1.79,17.36,17.36,0,0,0,0-10.67,2.67,2.67,0,0,0-3.38-1.67,2.62,2.62,0,0,0-1.67,1.67,17.36,17.36,0,0,0,0,10.67A2.7,2.7,0,0,0,393.67,298.53Zm18.08-9.91a6.14,6.14,0,0,0-1.56-3.11,3.8,3.8,0,0,0-2.79-1.23,3,3,0,0,0-2.06.7,2.38,2.38,0,0,0-.78,1.84,1.86,1.86,0,0,0,.86,1.56,11.1,11.1,0,0,0,3.12,1.18,9.47,9.47,0,0,1,4.13,1.84,4.49,4.49,0,0,1,1.05,3.3,5.2,5.2,0,0,1-1.38,3.79,4.9,4.9,0,0,1-3.62,1.42,6.9,6.9,0,0,1-4.28-1.56h0l-.84,1.56h-1V293.3h1.14a7.16,7.16,0,0,0,1.81,3.77,4.28,4.28,0,0,0,3.12,1.43,3.52,3.52,0,0,0,2.36-.73,2.36,2.36,0,0,0,.91-1.95A2.21,2.21,0,0,0,411,294a11.6,11.6,0,0,0-3.54-1.34,8,8,0,0,1-3.69-1.73,4.59,4.59,0,0,1-.95-3.25,4.87,4.87,0,0,1,1.23-3.48,4.31,4.31,0,0,1,3.25-1.31,6.28,6.28,0,0,1,3.81,1.36h0l.7-1.26h1.12v5.68h-1.15Zm6.38,7.44V284.93h-2.46v-1.56a3.52,3.52,0,0,0,2.6-1.55,11.43,11.43,0,0,0,1.38-5.33h1.24v6.9h4.47V285H421v10.41a3.35,3.35,0,0,0,.44,1.88,1.45,1.45,0,0,0,1.29.64,1.89,1.89,0,0,0,1.78-1.06,8.93,8.93,0,0,0,.68-3.54h1.17a9.33,9.33,0,0,1-1.15,5,3.74,3.74,0,0,1-3.32,1.64,3.49,3.49,0,0,1-2.63-1.06,3.85,3.85,0,0,1-1-2.79Z"/></svg>